<?xml version="1.0" standalone="no"?><!DOCTYPE svg PUBLIC "-//W3C//DTD SVG 1.1//EN" "http://www.w3.org/Graphics/SVG/1.1/DTD/svg11.dtd"><svg t="1530675380992" class="icon" style="" viewBox="0 0 1024 1024" version="1.1" xmlns="http://www.w3.org/2000/svg" p-id="3399" xmlns:xlink="http://www.w3.org/1999/xlink" width="64" height="64"><defs><style type="text/css"></style></defs><path d="M716.368 521.264l152.048-152.048-152.048-152.064L512 217.152 512 143.584c0-9.248-7.568-16.816-16.816-16.816l-60.56 0c-9.248 0-16.816 7.568-16.816 16.816l0 73.584-254.24 0c-4.416 0-8 3.584-8 8l0 288.112c0 4.416 3.584 8 8 8l254.24 0 0 59.664-94.064 0-76.032 76.032 76.032 76.032 94.064 0 0 147.424c0 9.248 7.568 16.816 16.816 16.816l60.56 0c9.248 0 16.816-7.568 16.816-16.816l0-147.424 116.144 0c4.416 0 8-3.584 8-8l0-136.064c0-4.416-3.584-8-8-8L512 580.944l0-59.664L716.368 521.28z" p-id="3400" fill="#ffffff"></path></svg>