<?xml version="1.0" standalone="no"?><!DOCTYPE svg PUBLIC "-//W3C//DTD SVG 1.1//EN" "http://www.w3.org/Graphics/SVG/1.1/DTD/svg11.dtd"><svg t="1530604452920" class="icon" style="" viewBox="0 0 1024 1024" version="1.1" xmlns="http://www.w3.org/2000/svg" p-id="7551" xmlns:xlink="http://www.w3.org/1999/xlink" width="64" height="64"><defs><style type="text/css"></style></defs><path d="M906.294716 444.191638l-39.564088 0c-18.121729 0-37.310767-14.160511-42.723034-31.467689l-22.675442-55.164391c-8.572236-15.971763-5.064342-39.506782 7.691169-52.330856l28.064172-27.994588c12.847609-12.858866 12.847609-33.836643 0-46.650483l-46.626947-46.580898c-12.82305-12.800537-33.780361-12.800537-46.626947 0l-28.040636 28.02938c-12.777001 12.812817-36.359093 16.309454-52.365648 7.737218l-55.083549-22.685675c-17.261129-5.354961-31.479969-24.592095-31.479969-42.724057L576.863798 114.815979c0-18.085914-14.867616-32.965809-32.91976-32.965809l-65.86408 0c-18.166755 0-33.011858 14.880919-33.011858 32.965809l0 39.541575c0 18.132986-14.102183 37.369096-31.43392 42.724057l-55.152111 22.685675c-16.007579 8.572236-39.495526 5.099135-52.272527-7.737218l-28.134781-28.02938c-12.800537-12.800537-33.756825-12.800537-46.557362 0l-46.580898 46.580898c-12.824073 12.812817-12.824073 33.791617 0 46.604434l27.971052 28.040636c12.870122 12.824073 16.355503 36.359093 7.759731 52.330856l-22.697955 55.199183c-5.367241 17.295921-24.579815 31.467689-42.724057 31.467689l-39.518039-0.034792c-18.120706 0-32.965809 14.810311-32.965809 32.954553l0 65.86408c0 18.131963 14.845103 32.980135 32.965809 32.980135l39.518039 0c18.144242 0.031722 37.310767 14.192234 42.655496 31.466666l22.76754 55.152111c8.526187 16.007579 5.065366 39.61116-7.759731 52.364625l-28.04166 28.008914c-12.754488 12.833283-12.754488 33.790594 0 46.638203l46.650483 46.614667c12.800537 12.801561 33.756825 12.801561 46.557362 0l28.087709-28.052916c12.754488-12.777001 36.288484-16.272615 52.202942-7.632841l55.269791 22.688745c17.331737 5.38873 31.43392 24.579815 31.43392 42.723034l0 39.424918c0 18.085914 14.821567 32.93204 33.011858 32.93204l65.86408 0c18.052145 0 32.91976-14.846126 32.91976-32.93204l0-39.424918c0-18.143219 14.21884-37.334303 31.479969-42.723034l55.200206-22.688745c15.960507-8.639774 39.564088-5.14416 52.365648 7.632841l27.92398 28.052916c12.847609 12.801561 33.803897 12.801561 46.626947 0l46.626947-46.614667c12.847609-12.847609 12.847609-33.80492 0-46.638203l-28.064172-28.008914c-12.755512-12.753465-16.263405-36.357046-7.691169-52.364625l22.675442-55.152111c5.412266-17.274432 24.670889-31.434943 42.723034-31.434943L906.294716 576.020082c18.075681 0 32.896224-14.821567 32.896224-32.94125l0-65.933665C939.191964 459.001949 924.370397 444.191638 906.294716 444.191638M675.762249 510.031159c0 90.989317-73.715909 164.68169-164.692946 164.68169S346.351797 601.020476 346.351797 510.031159c0-90.942245 73.739445-164.68169 164.716482-164.68169S675.762249 419.088914 675.762249 510.031159" p-id="7552" fill="#ffce00"></path></svg>